<?xml version="1.0" encoding="utf-8"?>
<!-- Designed by Vexels.com - 2017 All Rights Reserved - https://vexels.com/terms-and-conditions/  -->

<svg version="1.1" id="Layer_1" xmlns="http://www.w3.org/2000/svg" xmlns:xlink="http://www.w3.org/1999/xlink" x="0px" y="0px"
	 width="1200px" height="1200px" viewBox="0 0 1200 1200" enable-background="new 0 0 1200 1200" xml:space="preserve">
<g>
	<path fill="#FFFFFF" d="M1139.33,610.67C1139.33,908.521,897.851,1150,600,1150c-297.863,0-539.33-241.479-539.33-539.33
		C60.67,312.813,302.138,71.335,600,71.335C897.851,71.335,1139.33,312.813,1139.33,610.67z"/>
	<path fill="#0090B8" d="M1139.33,589.334c0,297.857-241.479,539.324-539.33,539.324c-297.863,0-539.33-241.467-539.33-539.324
		C60.67,291.473,302.138,50,600,50C897.851,50,1139.33,291.473,1139.33,589.334z"/>
	<g>
		<path fill="#FFFFFF" d="M876.01,357.594c-84.842-31.768-162.755-52.525-241.246-55.606
			c-144.178-5.675-264.606,30.711-309.865,54.651c-69.886,36.986-67.765,82.011-67.765,82.011s157.459-9.155,202.639-7.223
			c-8.372-24.733-2.754-37.569,17.465-39.961c115.398-27.598,214.986-5.49,214.986-5.49c59.004,5.462,57.828,41.948,57.828,41.948
			l205.869,19.454C957.932,416.564,949.526,386.791,876.01,357.594z"/>
		<path fill="#FFFFFF" d="M894.065,525.912c60.469-2.288,60.447-50.477,60.447-50.477S799.464,457.259,745.4,453.628
			C747.654,514.276,833.595,528.194,894.065,525.912z"/>
		<path fill="#FFFFFF" d="M460.541,458.269l-201.451,11.02c0,0,19.142,57.017,64.555,54.085
			c45.403-2.958,101.565-5.135,101.565-5.135S471.166,512.009,460.541,458.269z"/>
		<path fill="#FFFFFF" d="M729.366,463.737l-25.937-2.088c0,0-0.545,3.104,2.365,20.681c3.087,18.687-16.566,14.34-16.566,14.34
			l-80.822,0.211l-80.812-0.211c0,0-19.642,4.347-16.543-14.34c2.875-17.577,2.354-20.681,2.354-20.681l-25.927,2.088
			c0,0-16.555,139.777-76.525,205.742c-149.141,149.142-7.484,163.405-7.484,163.405H525.54h165.753h122.071
			c0,0,141.658-14.263-7.495-163.405C745.911,603.514,729.366,463.737,729.366,463.737z M561.36,746.343h-43.627v-43.643h43.627
			V746.343z M561.36,680.899h-43.627v-43.637h43.627V680.899z M561.36,615.461h-43.627v-43.654h43.627V615.461z M629.935,746.343
			h-43.637v-43.643h43.637V746.343z M629.935,680.899h-43.637v-43.637h43.637V680.899z M629.935,615.461h-43.637v-43.654h43.637
			V615.461z M698.511,746.343h-43.637v-43.643h43.637V746.343z M698.511,680.899h-43.637v-43.637h43.637V680.899z M698.511,615.461
			h-43.637v-43.654h43.637V615.461z"/>
	</g>
</g>
</svg>
